<?xml version="1.0" encoding="UTF-8"?><svg id="Layer_2" xmlns="http://www.w3.org/2000/svg" viewBox="0 0 268.9 75.91"><defs><style>.cls-1{fill:#e33b25;}.cls-2{fill:#3a3a3a;}.cls-3{fill:#9e9e9e;}</style></defs><g id="Layer_1-2"><polygon class="cls-2" points="123.76 54.12 112.15 29.04 110.33 29.04 104.65 41.37 105.56 42.79 113.42 42.79 115.49 47.17 102.66 47.17 101.75 47.75 98.81 54.12 93.75 54.12 108.62 21.79 113.86 21.79 128.82 54.12 123.76 54.12"/><path class="cls-2" d="M139.52,54.12v-20.39l4.6-3.19v23.58h-4.6ZM127.64,26.17v-4.38h28.32v4.38h-28.32Z"/><path class="cls-2" d="M172.91,54.12v-20.39l4.6-3.19v23.58h-4.6ZM161.03,26.17v-4.38h28.32v4.38h-28.32Z"/><polygon class="cls-3" points="218.4 54.12 206.79 29.04 204.97 29.04 199.3 41.37 200.21 42.79 208.07 42.79 210.13 47.17 197.3 47.17 196.39 47.75 193.45 54.12 188.39 54.12 203.27 21.79 208.5 21.79 223.46 54.12 218.4 54.12"/><rect class="cls-3" x="228.88" y="21.79" width="4.6" height="32.33"/><polygon class="cls-2" points="264.15 54.12 246.71 31.32 244.92 31.93 244.92 54.12 240.32 54.12 240.32 21.79 245.21 21.79 262.51 44.42 264.3 43.81 264.3 21.79 268.9 21.79 268.9 54.12 264.15 54.12"/><path class="cls-1" d="M35.96,26.18L23.84,0h3.76l9.49,20.49h1.82s4.66-10.12,4.66-10.12l-.91-1.42h-6.34l-1.53-3.24h10.25l.91-.58,2.37-5.13h3.76l-12.05,26.18h-4.07ZM52.08,75.91l-12.12-26.18h-4.07l-12.05,26.18h3.76l2.37-5.13.91-.58h10.25l-1.53-3.24h-6.34l-.91-1.42,4.66-10.12h1.82s9.49,20.48,9.49,20.48h3.76ZM75.91,52.08v-3.76l-5.13-2.37-.58-.91v-10.25l-3.24,1.53v6.34l-1.42.91-10.12-4.66v-1.82s20.49-9.49,20.49-9.49v-3.76l-26.19,12.12v4.07l26.19,12.05ZM0,52.07l26.19-12.12v-4.07L0,23.83v3.76l5.13,2.37.58.91v10.25l3.24-1.53v-6.34l1.42-.91,10.12,4.66v1.82S0,48.32,0,48.32v3.76ZM47.74,31.1l27.04-9.99-2.66-2.66-5.3,1.95-1.05-.23-7.25-7.25-1.21,3.37,4.48,4.48-.36,1.65-10.45,3.86-1.29-1.28,7.78-21.19-2.66-2.66-9.95,27.08,2.88,2.88ZM21.1,74.78l9.95-27.08-2.88-2.88L1.13,54.81l2.66,2.66,5.3-1.95,1.05.23,7.25,7.25,1.21-3.37-4.48-4.48.36-1.65,10.45-3.86,1.29,1.28-7.78,21.2,2.66,2.66ZM54.81,74.78l2.66-2.66-1.95-5.3.23-1.05,7.25-7.25-3.37-1.21-4.48,4.48-1.65-.36-3.86-10.45,1.28-1.29,21.2,7.78,2.66-2.66-27.08-9.95-2.88,2.88,9.99,27.04ZM28.22,31.05l2.88-2.88L21.1,1.13l-2.66,2.66,1.95,5.3-.23,1.05-7.25,7.25,3.37,1.21,4.48-4.48,1.65.36,3.86,10.45-1.28,1.29L3.79,18.44l-2.66,2.66,27.08,9.95Z"/></g></svg>